<svg id="visual" viewBox="0 0 900 600" width="900" height="600" xmlns="http://www.w3.org/2000/svg" xmlns:xlink="http://www.w3.org/1999/xlink" version="1.1"><rect x="0" y="0" width="900" height="600" fill="#001220"></rect><path d="M0 391L21.5 396.3C43 401.7 86 412.3 128.8 417.7C171.7 423 214.3 423 257.2 419.3C300 415.7 343 408.3 385.8 410.2C428.7 412 471.3 423 514.2 419.2C557 415.3 600 396.7 642.8 395.8C685.7 395 728.3 412 771.2 421.2C814 430.3 857 431.7 878.5 432.3L900 433L900 601L878.5 601C857 601 814 601 771.2 601C728.3 601 685.7 601 642.8 601C600 601 557 601 514.2 601C471.3 601 428.7 601 385.8 601C343 601 300 601 257.2 601C214.3 601 171.7 601 128.8 601C86 601 43 601 21.5 601L0 601Z" fill="#e4a646"></path><path d="M0 462L21.5 462.7C43 463.3 86 464.7 128.8 458C171.7 451.3 214.3 436.7 257.2 426.2C300 415.7 343 409.3 385.8 406C428.7 402.7 471.3 402.3 514.2 406.3C557 410.3 600 418.7 642.8 420.7C685.7 422.7 728.3 418.3 771.2 421.2C814 424 857 434 878.5 439L900 444L900 601L878.5 601C857 601 814 601 771.2 601C728.3 601 685.7 601 642.8 601C600 601 557 601 514.2 601C471.3 601 428.7 601 385.8 601C343 601 300 601 257.2 601C214.3 601 171.7 601 128.8 601C86 601 43 601 21.5 601L0 601Z" fill="#ed7745"></path><path d="M0 500L21.5 497.2C43 494.3 86 488.7 128.8 481.2C171.7 473.7 214.3 464.3 257.2 464.5C300 464.7 343 474.3 385.8 474.3C428.7 474.3 471.3 464.7 514.2 462C557 459.3 600 463.7 642.8 469.8C685.7 476 728.3 484 771.2 479.7C814 475.3 857 458.7 878.5 450.3L900 442L900 601L878.5 601C857 601 814 601 771.2 601C728.3 601 685.7 601 642.8 601C600 601 557 601 514.2 601C471.3 601 428.7 601 385.8 601C343 601 300 601 257.2 601C214.3 601 171.7 601 128.8 601C86 601 43 601 21.5 601L0 601Z" fill="#e6425b"></path><path d="M0 538L21.5 531.5C43 525 86 512 128.8 502.7C171.7 493.3 214.3 487.7 257.2 494.8C300 502 343 522 385.8 527.3C428.7 532.7 471.3 523.3 514.2 521.8C557 520.3 600 526.7 642.8 526C685.7 525.3 728.3 517.7 771.2 517.3C814 517 857 524 878.5 527.5L900 531L900 601L878.5 601C857 601 814 601 771.2 601C728.3 601 685.7 601 642.8 601C600 601 557 601 514.2 601C471.3 601 428.7 601 385.8 601C343 601 300 601 257.2 601C214.3 601 171.7 601 128.8 601C86 601 43 601 21.5 601L0 601Z" fill="#c9017a"></path><path d="M0 538L21.5 540.3C43 542.7 86 547.3 128.8 553.3C171.7 559.3 214.3 566.7 257.2 565C300 563.3 343 552.7 385.8 552.5C428.7 552.3 471.3 562.7 514.2 565.2C557 567.7 600 562.3 642.8 559.5C685.7 556.7 728.3 556.3 771.2 557.3C814 558.3 857 560.7 878.5 561.8L900 563L900 601L878.5 601C857 601 814 601 771.2 601C728.3 601 685.7 601 642.8 601C600 601 557 601 514.2 601C471.3 601 428.7 601 385.8 601C343 601 300 601 257.2 601C214.3 601 171.7 601 128.8 601C86 601 43 601 21.5 601L0 601Z" fill="#8c0d9b"></path></svg>