<svg id="visual" viewBox="0 0 900 600" width="900" height="600" xmlns="http://www.w3.org/2000/svg" xmlns:xlink="http://www.w3.org/1999/xlink" version="1.1"><path d="M0 187L113 187L225 175L338 181L450 187L563 157L675 181L788 211L900 205L900 0L788 0L675 0L563 0L450 0L338 0L225 0L113 0L0 0Z" fill="#c4cfc7"></path><path d="M0 271L113 253L225 253L338 247L450 271L563 235L675 253L788 271L900 277L900 203L788 209L675 179L563 155L450 185L338 179L225 173L113 185L0 185Z" fill="#abc9b9"></path><path d="M0 391L113 373L225 379L338 349L450 355L563 331L675 355L788 373L900 373L900 275L788 269L675 251L563 233L450 269L338 245L225 251L113 251L0 269Z" fill="#8ec4af"></path><path d="M0 481L113 439L225 457L338 421L450 445L563 421L675 433L788 463L900 439L900 371L788 371L675 353L563 329L450 353L338 347L225 377L113 371L0 389Z" fill="#6abfa9"></path><path d="M0 601L113 601L225 601L338 601L450 601L563 601L675 601L788 601L900 601L900 437L788 461L675 431L563 419L450 443L338 419L225 455L113 437L0 479Z" fill="#31b9a6"></path></svg>