<?xml version="1.0" encoding="UTF-8"?>
<svg id="Layer_1" data-name="Layer 1" xmlns="http://www.w3.org/2000/svg" viewBox="0 0 841.89 595.28">
  <defs>
    <style>
      .cls-1 {
        letter-spacing: .01em;
      }

      .cls-2 {
        letter-spacing: .03em;
      }

      .cls-3 {
        letter-spacing: -.01em;
      }

      .cls-4 {
        letter-spacing: 0em;
      }

      .cls-5 {
        letter-spacing: .02em;
      }

      .cls-6 {
        letter-spacing: 0em;
      }

      .cls-7 {
        letter-spacing: 0em;
      }

      .cls-8 {
        letter-spacing: 0em;
      }

      .cls-9, .cls-10 {
        fill: #231f20;
      }

      .cls-11 {
        letter-spacing: 0em;
      }

      .cls-12 {
        letter-spacing: 0em;
      }

      .cls-13 {
        letter-spacing: 0em;
      }

      .cls-14 {
        fill: #fff;
      }

      .cls-14, .cls-15 {
        stroke: #231f20;
        stroke-miterlimit: 10;
      }

      .cls-16 {
        letter-spacing: .02em;
      }

      .cls-17 {
        letter-spacing: 0em;
      }

      .cls-18 {
        letter-spacing: -.01em;
      }

      .cls-19 {
        letter-spacing: .02em;
      }

      .cls-15 {
        fill: none;
      }

      .cls-20 {
        letter-spacing: 0em;
      }

      .cls-21 {
        letter-spacing: .03em;
      }

      .cls-22 {
        letter-spacing: 0em;
      }

      .cls-10 {
        font-family: MyriadPro-Regular, 'Myriad Pro';
        font-size: 5.3px;
      }

      .cls-23 {
        letter-spacing: 0em;
      }

      .cls-24 {
        letter-spacing: -.03em;
      }
    </style>
  </defs>
  <rect class="cls-14" x="357.09" y="246.33" width="42.52" height="29.84" rx="13.41" ry="13.41"/>
  <rect class="cls-14" x="401.86" y="151.87" width="42.52" height="29.84" rx="13.41" ry="13.41"/>
  <rect class="cls-14" x="442.28" y="246.33" width="42.52" height="29.84" rx="13.41" ry="13.41"/>
  <text class="cls-10" transform="translate(372.84 259.13)"><tspan class="cls-6" x="0" y="0">U</tspan><tspan x="3.4" y="0">ser </tspan><tspan class="cls-1" x="-8.47" y="6.37">M</tspan><tspan x="-4.14" y="6.37">ic</tspan><tspan class="cls-3" x="-.53" y="6.37">r</tspan><tspan class="cls-11" x="1.16" y="6.37">ose</tspan><tspan class="cls-5" x="8.83" y="6.37">r</tspan><tspan class="cls-7" x="10.69" y="6.37">vi</tspan><tspan class="cls-6" x="14.49" y="6.37">c</tspan><tspan class="cls-7" x="16.83" y="6.37">e</tspan></text>
  <text class="cls-10" transform="translate(412.98 164.99)"><tspan class="cls-24" x="0" y="0">F</tspan><tspan class="cls-3" x="2.45" y="0">r</tspan><tspan x="4.13" y="0">o</tspan><tspan class="cls-17" x="7.04" y="0">n</tspan><tspan class="cls-13" x="9.96" y="0">t</tspan><tspan class="cls-12" x="11.69" y="0">end</tspan><tspan class="cls-20" x="2.16" y="6.37">S</tspan><tspan x="4.8" y="6.37">e</tspan><tspan class="cls-5" x="7.46" y="6.37">r</tspan><tspan x="9.33" y="6.37">vi</tspan><tspan class="cls-13" x="13.12" y="6.37">c</tspan><tspan x="15.47" y="6.37">e</tspan></text>
  <rect class="cls-14" x="401.86" y="203.42" width="42.52" height="29.84" rx="13.41" ry="13.41"/>
  <text class="cls-10" transform="translate(416.89 216.56)"><tspan class="cls-18" x="0" y="0">L</tspan><tspan x="2.43" y="0">o</tspan><tspan class="cls-4" x="5.34" y="0">g</tspan><tspan x="8.28" y="0">in</tspan><tspan class="cls-20" x="-1.75" y="6.37">S</tspan><tspan x=".89" y="6.37">e</tspan><tspan class="cls-5" x="3.55" y="6.37">r</tspan><tspan x="5.42" y="6.37">vi</tspan><tspan class="cls-13" x="9.21" y="6.37">c</tspan><tspan x="11.56" y="6.37">e</tspan></text>
  <text class="cls-10" transform="translate(455.48 259.08)"><tspan class="cls-8" x="0" y="0">D</tspan><tspan class="cls-12" x="3.55" y="0">evi</tspan><tspan class="cls-13" x="10" y="0">c</tspan><tspan x="12.35" y="0">e </tspan><tspan class="cls-1" x="-5.92" y="6.37">M</tspan><tspan class="cls-12" x="-1.59" y="6.37">ic</tspan><tspan class="cls-22" x="2.03" y="6.37">r</tspan><tspan x="3.71" y="6.37">ose</tspan><tspan class="cls-2" x="11.38" y="6.37">r</tspan><tspan x="13.25" y="6.37">vi</tspan><tspan class="cls-13" x="17.04" y="6.37">c</tspan><tspan x="19.39" y="6.37">e</tspan></text>
  <g>
    <path class="cls-15" d="M386.96,310.91v22.69c-6.68,4.49-13.1,4.32-19.29,0v-22.69c6.43,5.01,12.86,5.01,19.29,0Z"/>
    <path class="cls-15" d="M367.67,319.43c6.43,6.28,12.86,6.28,19.29,0"/>
    <path class="cls-15" d="M367.67,325.02c6.43,6.44,12.86,6.44,19.29,0"/>
    <path class="cls-15" d="M367.67,310.91c6.43-4.61,12.86-4.61,19.29,0"/>
  </g>
  <g>
    <line class="cls-15" x1="377.32" y1="279.2" x2="377.32" y2="297.94"/>
    <polygon class="cls-9" points="373.61 295.13 377.32 296.7 381.02 295.13 377.32 303.91 373.61 295.13"/>
  </g>
  <g>
    <path class="cls-15" d="M474.13,310.3v22.69c-6.68,4.49-13.1,4.32-19.29,0v-22.69c6.43,5.01,12.86,5.01,19.29,0Z"/>
    <path class="cls-15" d="M454.84,318.82c6.43,6.28,12.86,6.28,19.29,0"/>
    <path class="cls-15" d="M454.84,324.41c6.43,6.44,12.86,6.44,19.29,0"/>
    <path class="cls-15" d="M454.84,310.3c6.43-4.61,12.86-4.61,19.29,0"/>
  </g>
  <g>
    <line class="cls-15" x1="464.48" y1="278.6" x2="464.48" y2="297.33"/>
    <polygon class="cls-9" points="460.78 294.52 464.48 296.1 468.19 294.52 464.48 303.3 460.78 294.52"/>
  </g>
  <text class="cls-10" transform="translate(368.75 342.3)"><tspan x="0" y="0">use</tspan><tspan class="cls-23" x="7.68" y="0">r</tspan><tspan class="cls-16" x="9.39" y="0">-</tspan><tspan class="cls-11" x="11.11" y="0">db</tspan></text>
  <text class="cls-10" transform="translate(453.32 342.3)"><tspan x="0" y="0">devi</tspan><tspan class="cls-13" x="9.44" y="0">c</tspan><tspan class="cls-21" x="11.79" y="0">e</tspan><tspan class="cls-19" x="14.59" y="0">-</tspan><tspan x="16.32" y="0">db</tspan></text>
  <g>
    <line class="cls-15" x1="401.86" y1="236.26" x2="399.05" y2="239.62"/>
    <path class="cls-9" d="M395.18,244.25c1.01-2.85,1.89-6.71,1.83-9.61l2.55,4.37,4.75,1.73c-2.86,.46-6.5,2.01-9.13,3.51Z"/>
  </g>
  <g>
    <line class="cls-15" x1="443.3" y1="236.26" x2="446.04" y2="239.59"/>
    <path class="cls-9" d="M449.87,244.25c-2.62-1.52-6.24-3.11-9.1-3.58l4.77-1.69,2.58-4.35c-.08,2.9,.76,6.76,1.75,9.62Z"/>
  </g>
  <g>
    <line class="cls-15" x1="423.12" y1="183.55" x2="423.12" y2="194.65"/>
    <path class="cls-9" d="M423.12,200.68c-1.05-2.84-2.85-6.36-4.76-8.55l4.76,1.72,4.75-1.72c-1.9,2.18-3.7,5.71-4.75,8.55Z"/>
  </g>
</svg>